<?xml version="1.0" standalone="no"?>
<!DOCTYPE svg PUBLIC "-//W3C//DTD SVG 20010904//EN"
 "http://www.w3.org/TR/2001/REC-SVG-20010904/DTD/svg10.dtd">
<svg version="1.0" xmlns="http://www.w3.org/2000/svg"
 width="512.000000pt" height="512.000000pt" viewBox="0 0 512.000000 512.000000"
 preserveAspectRatio="xMidYMid meet">

<g transform="translate(0.000000,512.000000) scale(0.100000,-0.100000)"
fill="#000000" stroke="none">
<path d="M1130 5104 c-92 -34 -154 -93 -197 -189 -16 -35 -18 -78 -21 -346
l-3 -306 23 -26 c34 -39 69 -44 104 -14 l29 25 5 309 c6 342 6 342 73 383 74
46 163 30 215 -38 l27 -35 3 -1149 2 -1148 -160 0 -160 0 0 700 c0 763 0 762
-54 776 -40 10 -74 -4 -91 -36 -13 -25 -15 -124 -15 -740 l0 -710 -48 0 c-65
0 -147 -42 -189 -97 -40 -54 -53 -116 -53 -261 0 -209 25 -288 116 -379 62
-60 136 -92 236 -100 l68 -6 2 -751 3 -751 30 -54 c17 -31 51 -71 78 -93 92
-73 8 -69 1428 -66 l1274 3 57 28 c61 30 105 74 140 140 l23 42 3 751 2 751
68 6 c184 15 314 130 342 303 13 80 13 281 -1 344 -22 104 -126 190 -231 190
l-48 0 -2 1158 -3 1157 -26 56 c-33 69 -88 127 -154 159 -70 34 -187 35 -263
1 -75 -34 -146 -115 -171 -194 l-19 -62 -1012 0 -1013 0 -12 40 c-30 102 -94
178 -180 216 -65 29 -165 35 -225 13z m2830 -156 c25 -13 55 -38 67 -57 l23
-34 0 -1143 0 -1144 -160 0 -160 0 2 1148 3 1147 24 34 c26 36 90 70 131 71
14 0 46 -10 70 -22z m-1480 -998 l0 -220 -120 0 c-101 0 -127 -3 -160 -20 -48
-25 -86 -73 -98 -125 -11 -52 21 -409 43 -476 22 -65 92 -141 163 -176 57 -28
59 -28 252 -28 184 0 198 1 248 24 67 30 145 114 167 180 22 67 54 424 43 476
-12 52 -50 100 -98 125 -33 17 -59 20 -160 20 l-120 0 0 220 0 220 470 0 470
0 -2 -802 -3 -803 -1015 0 -1015 0 -3 803 -2 802 470 0 470 0 0 -220z m381
-386 c10 -13 10 -48 -5 -202 -19 -211 -35 -255 -100 -286 -50 -23 -342 -23
-392 0 -65 31 -80 75 -99 287 -14 149 -15 190 -5 202 19 23 581 22 601 -1z
m1448 -1180 l31 -26 0 -166 c0 -189 -8 -216 -83 -276 l-39 -31 -1658 0 -1658
0 -39 31 c-75 60 -83 87 -83 276 l0 166 31 26 31 26 1718 0 1718 0 31 -26z
m-2309 -874 l0 -210 -405 0 -405 0 0 210 0 210 405 0 405 0 0 -210z m970 0 l0
-210 -410 0 -410 0 0 210 0 210 410 0 410 0 0 -210z m960 0 l0 -210 -405 0
-405 0 0 210 0 210 405 0 405 0 0 -210z m-1450 -575 l0 -215 -645 0 -645 0 0
215 0 215 645 0 645 0 0 -215z m1450 0 l0 -215 -645 0 -645 0 0 215 0 215 645
0 645 0 0 -215z m-1930 -575 l0 -211 -354 3 c-342 3 -356 4 -383 24 -15 11
-38 36 -50 54 -21 31 -23 44 -23 186 l0 154 405 0 405 0 0 -210z m970 0 l0
-210 -410 0 -410 0 0 210 0 210 410 0 410 0 0 -210z m960 59 c0 -178 -12 -214
-85 -249 -39 -19 -62 -20 -383 -20 l-342 0 0 210 0 210 405 0 405 0 0 -151z"/>
</g>
</svg>
